<?xml version="1.0" standalone="no"?>
<!DOCTYPE svg PUBLIC "-//W3C//DTD SVG 20010904//EN"
 "http://www.w3.org/TR/2001/REC-SVG-20010904/DTD/svg10.dtd">
<svg version="1.0" xmlns="http://www.w3.org/2000/svg"
 width="200.000000pt" height="200.000000pt" viewBox="0 0 200.000000 200.000000"
 preserveAspectRatio="xMidYMid meet">
<metadata>
Created by potrace 1.11, written by Peter Selinger 2001-2013
</metadata>
<g transform="translate(0.000000,200.000000) scale(0.100000,-0.100000)"
fill="#000000" stroke="none">
<path d="M0 1000 l0 -1000 1000 0 1000 0 0 1000 0 1000 -1000 0 -1000 0 0
-1000z m1494 516 c42 -18 66 -51 66 -93 0 -32 -1 -33 -44 -33 -40 0 -44 2 -49
29 -10 50 -81 54 -93 6 -10 -40 4 -62 79 -123 88 -71 117 -112 117 -164 0 -85
-53 -128 -157 -128 -91 0 -142 44 -143 123 l0 37 45 0 c41 0 45 -2 45 -25 0
-26 31 -65 53 -65 23 0 57 31 57 51 0 34 -17 56 -85 106 -85 65 -107 95 -113
152 -5 60 15 102 60 124 41 20 117 22 162 3z m-887 -161 c18 -88 34 -164 36
-170 2 -5 18 68 36 163 l33 172 69 0 69 0 0 -250 0 -250 -45 0 -45 0 -2 168
-3 167 -23 -120 c-13 -66 -28 -141 -34 -167 l-10 -48 -47 0 -48 0 -32 158
c-18 86 -34 162 -36 167 -2 6 -4 -65 -4 -157 l-1 -168 -45 0 -45 0 0 250 0
251 72 -3 71 -3 34 -160z m543 157 c0 -7 83 -415 95 -469 5 -22 2 -23 -50 -23
-50 0 -55 2 -55 23 -1 60 -8 67 -71 67 -63 0 -61 1 -71 -65 -3 -16 -12 -21
-51 -23 -26 -2 -47 -1 -47 1 0 5 89 447 95 475 5 20 11 22 80 22 41 0 75 -4
75 -8z"/>
<path d="M1044 1297 l-20 -112 39 -3 c22 -2 41 -1 44 2 6 6 -27 208 -36 218
-4 4 -16 -43 -27 -105z"/>
</g>
</svg>
